<?xml version="1.0" encoding="utf-8"?>
<!-- Generator: Adobe Illustrator 24.1.1, SVG Export Plug-In . SVG Version: 6.00 Build 0)  -->
<svg version="1.1" id="Слой_1" xmlns="http://www.w3.org/2000/svg" xmlns:xlink="http://www.w3.org/1999/xlink" x="0px" y="0px"
	 viewBox="0 0 800 600" style="enable-background:new 0 0 800 600;" xml:space="preserve">
<style type="text/css">
	.st0{fill:none;}
	.st1{fill:#fff;stroke:#1976D2;stroke-width:0.25;stroke-linecap:round;stroke-linejoin:round;}
	.st2{fill:none;stroke:#1976D2;stroke-width:2;stroke-miterlimit:10;}
	.st3{display:none;}
	.st4{display:inline;}
	.st5{fill:#64AC95;}
	.st6{fill:url(#SVGID_1_);}
	.st7{fill:url(#SVGID_2_);}
	.st8{fill:#FFFFFF;}
	.st9{fill:url(#SVGID_3_);}
	.st10{fill:url(#SVGID_4_);}
	.st11{fill:url(#SVGID_5_);}
	.st12{fill:url(#SVGID_6_);}
	.st13{fill:#D48A5A;}
	.st14{fill:#E6B382;}
	.st15{fill:#F0D3BB;}
	.st16{fill:none;stroke:#1976D2;stroke-miterlimit:10;stroke-dasharray:2;}
	.st17{fill:#1976D2;stroke:#1976D2;stroke-width:0.92;stroke-miterlimit:10;}
	.st18{fill-rule:evenodd;clip-rule:evenodd;fill:#FFFFFF;}
	.st19{fill:none;stroke:#1976D2;stroke-miterlimit:10;stroke-dasharray:2.01;}
	.st20{fill:#1976D2;stroke:#1976D2;stroke-width:0.93;stroke-miterlimit:10;}
</style>
<g id="Слой_2_1_">
	<g id="Слой_10">
		<rect y="0" class="st0" width="800" height="600"/>
	</g>
	<g id="Uzbekistan">
		<path class="st1" d="M711.3,386.3l0.2,0.6l-1,3.6l-0.4,0.7l-0.7,0.1l-1.1-0.3l-0.8-0.4l-0.9-0.7l-0.4-0.8l0.7-0.8l1.1-0.1l0.8-0.4
			l1.6-1.2L711.3,386.3z M721.1,371l0.3,0.2l0.2,0.4l-0.3,0.6l-0.6,0.2l-0.7-0.1l-0.5-0.2l-0.3-0.1h-0.3l-0.5,0.2l-1.7-0.1l-1.7-0.4
			l-1.6,0.1l-1.3,1.3l-0.8,1.8l-0.5,0.8l-0.7,0.7l-2.3,1.3l-0.6,0.2l-0.9-0.4l-0.3-0.9v-2.3l-0.3-1.1l-0.6-1.3l-0.8-0.7l-0.8,0.7
			l-0.3,1.1l-0.1,1l-0.4,0.6l-1.1,0.1l-2-0.4l-1-0.4l-0.9-0.6l-0.8-0.8l-0.3-0.8l-0.4-0.7l-1.9-0.6l-1.3-1.3l-0.9-0.1l-1.4,0.1
			L690,369l-0.6-0.3l-0.5-0.5l-0.4-0.6l-0.4-0.4l-0.6,0.2l-0.7,1l-0.4,1.3l-0.6,1l-1.4,0.1l-5-0.7l-2.5,0.4l-1.6,1.6l-0.9-0.1
			l-3.8,0.3l-6.2,1.9l-1.8,0.1l-1.8-0.1l-1.7-1.3l-0.8-2.4l-0.6-2.6l-1.2-1.9l-0.5,0l-0.8,0.1l-0.8,0.3l-0.9,0.1l-0.9-0.3l-2.2-1
			l0.6-2l-0.1-0.2l-0.4-0.5l-0.1-0.1l0,0l-0.6-0.8l-0.1-0.1l-0.1-0.3l-0.1-1.2l0.7-1.1l1.3-0.8l3-0.7l0.4-0.2l0.4-0.6l1-1.8l0.6-0.6
			l0.6-0.3l0.6-0.2l0.7-0.3l0.5-0.5l1.5-1.9l2.6-2.2l0.7-0.6l0.6-0.5l0.4-0.2l0.7-0.2l0.1-0.2l0.1-0.3l0.2-0.2l0.7-0.4l0,0l1.1-0.7
			l0.5-0.5l0.4-0.6l0.5-0.5l0.7-0.4h0.6l1.2,0.1l0.6-0.1l2-1.8h0.9l0.7,0.3l0.3,0.2l0.3,0.2l1.4,0.2l4.9-0.3l-2.7,3.8l0.2,0.2
			l1.7,0.2l0.3,0.1l1.2,1.3l0.3,0.2l0.4,0.1l0.8,0.2l0.5,0.2l0.9,0.7l2,1.1l0.6,0.2l1-0.2l2.8-2.7l1.4-2.1l0.8-0.7l3.8-2.1l3.6-1.2
			l1.3,2l0.9,1.8l0.4,0.6l0.2,0.1l0.1-1l0.3-0.2h0.5l1.2,0.6l0.6,0.2h0.4l0.2-0.2l0.5-0.1h0.7l2.3,0.8l0.5,0.3l0.4,0.4l0.4,0.7
			l1.7,2.4l0.3,0.2l0.4,0.1l1,0.2l0.9-0.1l1.2-0.1l2,0.7l2.6,0.6l0.7-0.1l0.5-0.6l0.4-0.4l0.6,0.4l0.8,1.2l0.3,0.3l0.5,0.1l2.2,0.7
			l0.6,0.5v0.3v0.3v0.7l-0.2,1.1l-0.1,1l0.1,0.8l0.4,1.3l0.1,0.3l0,0l-2,0.1l-0.7,0.2l-2.9,1.6l-0.4,0.6l-0.3,1.1l-0.6,1.6l-1.1,1.1
			l-3.7,1.9l-0.2,0.8l0.3,0.8l0.8,0.6l1.3,0.6L721.1,371z M685.1,383.4l0.2-0.1l0.5-0.4l0.2-0.1l1.1-0.3l0.5,0.1l0.3,0.5l-0.3,0.9
			l-2,1.4l-0.7,0.7l0.1,1.5l1.9,2l-0.1,1.7l-0.5,0.7l-0.6,0.2h-1.5l-2,0.5l-0.6-0.1l-0.5-0.5l-0.1-0.6l-0.2-0.5H680l-0.5,0.3
			l-0.6,0.6l-0.6,0.4l-0.5-0.3l-0.1-1.4l1.8-2.9l-0.2-1.6l-0.5-0.4l-1.2-0.3l-0.6-0.3l-0.5-0.7l-1.1-2.3l-0.2-0.9v-0.9l0.3-1
			l0.8-1.8l1.3-0.8l1,0.6l0.7,1.4l0.6,1.5l0.7,0.9l1.2,0.8l2.4,1l0.2,0.1l0.2,0.1L685.1,383.4z"/>
		<path class="st1" d="M688.2,260L688.2,260l-0.5,2.2l-1.6,1.1l-3.5,1l-6.1,4.6l-1.8,0.4l-2.1-0.1l-1.8,0.5l-0.8,2.1l-0.1,3.3
			l-0.5,1l-1.5,0.6l-4.3,0.5l-1.3,0.8l-4.3,3.6l-1.9,2.2l-1.3,2.7l-1,1.5l-1.3,0.9l-1.4,0.7l-2.6,2l-7,4.1l-0.9,1.5l0.8,1.9l1.6,0.8
			l6.1,0.7l0,0l1.6,1l0.7,0.7l0.6,0.8l1.1,2l0.7,0.6h0.8l-0.5,1.4l-0.4,0.7l-2.1,2.8l-0.1,0.3l-0.1,0.4l0.1,0.7v0.9l0.1,0.3l0.2,0.2
			l1.2,0.2l0.2,0.5l-0.2,0.8l-0.1,0.4L652,317l-0.1,0.4v0.4l0.1,0.4l0.3,0.5l0.9,1.2l0.9,1.5l0.2,1.3l0.1,4.2l-0.3,1.3l0,0l-0.5-0.6
			l-1.9-0.8l-1.6,0.4l-1.2,6l-2.3,2.9l-3.1,1.9l-4.5,1.8l-4.1,3.1l-8,2.5l-0.9,0.5l-0.9,0.7l-1.8,2.3l-1,0.9l-1.2,0.4l-1.3-0.5
			l-0.5-0.5l-0.4-0.6l-0.8-1.4l-0.5-0.6l-1.1-0.7l-0.5-0.5l-1.7-2.6l-1-0.9l-1.4-0.1l-0.7-0.4l-0.5-0.6l-0.6-0.5l-0.8-0.1l-1.4,0.5
			l-0.7,0.4l-0.6,0.5l-1.1,1.4l-0.7,1.5l-0.3,1.7v2.1l0.3,3l-0.2,0.8l-0.6,0.4l-2.6,0.2l-1.5,1.1v1.2l1.7,2.9l0,0l0.9,3.2l0.4,1
			l1.1,2l0.5,1.1l0.3,1.3l-0.3,2.8l-1.4,0.2l-1.7-0.6l-1.1,0.1l0.2,1.7l3.1,2.8v1.3l-1.6,0.8l-2.1-0.1l-3.9-1.2l-1.5-0.8l0,0
			l0.2-0.7l0.6-2.2l-0.1-0.8l-0.3-0.5l-0.6-1.6l0.9-5.2l0.1-0.4l0.3-0.6l0.2-0.4l0.6-0.8l0.2-0.5l-0.1-0.5l-0.2-0.5l-0.1-0.5
			L596,358l-0.5-0.4l-0.1-0.5l0.8-0.5l-0.4-0.3l-0.4-0.1H595h-0.5l0.5-2l0.4-0.8l1.1-0.5v-0.4l-0.3-0.4l-0.4-0.2l-0.4,0.2l-0.5,0.5
			l-0.4,0.3l-0.3-0.2v-0.4l0.7-0.7l0.2-0.5l-0.2-0.5l-0.8-0.7l-0.5-1.4l-0.8-0.1l-1.8,0.4l0.7-1.1l0.2-0.6l-0.4-0.2l-0.7,0.2
			l-0.6,0.4l-0.6,0.2l-0.7-0.4l0.6-0.7l-0.1-0.8l-0.5-0.7l-0.6-0.5l-0.3-0.1h-0.3h-0.3l-0.3-0.3V344l0.1-0.7V343l-0.5-0.9l-0.2-0.3
			l-0.5-0.4l-1.2-0.6l-0.3-0.2l-0.3-0.4l-0.5-1l-0.4-0.5l-0.7-0.5l-0.9-0.4l-0.9-0.2l-0.7,0.3l-0.1-1l-0.1-0.4h-0.2l-0.4,0.3
			l-0.2-0.1l-0.1-0.4l-0.1-1.4l-0.1-0.6l-0.3-0.5l-2.2-2l0.4-0.2l1.3-0.6l0.4-0.5l0.4-0.5l0.8-2.3l0.8-2.3l0.6-0.7l0.6-0.7l1.5-0.6
			l1.5-0.7l0.5-0.9l0.5-0.9l0.3-0.4l0.3-0.4l0.4-0.1l0.5-0.1l0.9-0.1l0.9-0.1l0.8-0.4l0.8-0.4l0.7-0.5l0.7-0.5l0.4-0.4l0.4-0.4
			l0.2-0.3l0.2-0.3l0.3-2.7l0.3-2.7v-0.5v-0.5l-0.1-0.3l-0.1-0.3l-0.1-0.1l-0.1-0.1l-0.1-0.1l-0.1-0.1l-0.2-0.3l-0.2-0.3l-0.1-0.2
			l-0.1-0.2l0.1-0.2l0.1-0.2l0.2-0.1l0.2-0.1l1-0.5l1-0.5l0.4-0.1l0.4-0.1l0.4,0.2l0.4,0.2l0.2-0.6l0.2-0.6l0.5-0.5l0.5-0.5l1.2-0.8
			l1.2-0.7l0.3-0.1l0.3-0.1l0.6,0.2l0.6,0.2h0.3h0.3l0.8-0.5l0.8-0.5l0.3-0.1l0.3-0.1l1.3,0.2l1.3,0.2l0.3-0.1l0.3-0.1v-0.3v-0.3
			l-0.4-0.7l0.1-0.9l-0.1-0.3l-0.1-0.3l0.3-0.8l0.3-0.8l0.6-0.4l0.6-0.4l1.2-0.4l1.2-0.4l2.2-1.7l2.2-1.7l0.6-0.7l0.6-0.7l0.4-0.3
			l0.4-0.3l2.9-0.8l2.9-0.8l2.4-0.1l2.4-0.1l0.9-0.4l0.9-0.4l0.7-0.8l0.7-0.8l0.3-0.5l0.3-0.4l0.3-0.3l0.3-0.3l1.2-0.4l1.2-0.5
			l1.8-1.3l1.8-1.3l0.5-0.6l0.5-0.6l1.5-2.5l1.5-2.5l0.3-0.3l0.3-0.3l0.4-0.2l0.4-0.2l0.4-0.1l0.4-0.1l0.4-0.2l0.3-0.2l0.3-0.3
			l0.3-0.3l0.2-0.5l0.2-0.5l0.5-1.2l0.5-1.2l0.9-0.8l0.9-0.8l2.1-0.9l2.1-0.9l0.3,0.1l0.3,0.1l0.4,0.3l0.4,0.3l0.3,0.4l0.3,0.4
			l0.2,0.4l0.2,0.4l0.2,0.5l0.2,0.5l0.3,0.3l0.3,0.3l0.5,0.2l0.5,0.2l0.5,0.1l0.5,0.1l0.7-0.3l0.7-0.3l0.5-0.9l0.5-0.9l0.4-1.1
			l0.4-1.1l0.5-1l0.5-0.9l0.6-0.7l0.6-0.7l0.2-0.4v-0.4l0.2-0.5l0.2-0.5l0.3-0.4l0.3-0.4h0.5h0.5l1,0.3l1,0.3l0.8-0.1l0.8-0.1
			l0.8-0.4l0.8-0.4l1.5-1.2l1.5-1.2l0.9-0.9l1.9-1.4l1.4-0.2l1.4,0.6l6,4.4L688.2,260z M601.7,316.5l1.4-1.7l2.2-2l1.6-0.8l-0.4-0.5
			l0.3-0.5l-0.4-0.7l-0.6-0.4l0.7-1.1l-0.2-0.9l-1.6-1l-1.3-0.2l-1-0.7h-1.5l-2.3,2.3l-0.3,1.8l-1.1,2.8l0.1,0.1l0.7-0.4l0.1,0.7
			l0.3,0.6l1.1,1.2l0.7-0.7v0.2l-0.3,0.6l0.5,1L601.7,316.5z"/>
		<path class="st1" d="M654.6,305.9h0.3l1.5-0.6l5.3-3l1.5-0.2l0.8,0.5l0.7,1l2.4,4.2l0.4,1.2l0.1,1.2l-0.6,3.5l0.1,1l0.5,0.8
			l0.7-0.1l0.8-0.4l1-0.1l0.8,0.3l0.8,0.6l0.7,0.7l0.6,0.8l0.8,0.8l0.8,0.1l1.9-0.3l2,0.4l1,0.5l0.9,0.7l0.8,0.4l1.6,0.2l0.7,0.6
			l1.1,1.9l0.7,0.5l0.4-1.1l-0.1-1.2l-0.2-1l0.1-0.8l0.9-0.5l1,0.1l0.5,0.7l0.5,2.2l0.4,0.8l0.5,0.6h0.6l0.5-1.1l1.1-1.4l3,2.5
			l1-0.8l0.2-2l-0.4-9.9l0.3-0.7l0.6,0.1l2.1,2l1.9,0.8l1.5-0.3l1.2-1.3l1.4-3.1l0.6-1.9l0.2-1.1l-0.2-1l-1.2-1.6l-0.4-1l0,0
			l0.9-2.2l0.5-0.6l1-0.4l0.9,0.1l0.5,0.8l0.2,1.1v1.2l-0.8,3.2v0.7l0.4,0.2l0.3-0.5l0.2-0.6l0.2-0.3l0.5,0.2l0.2,0.9l0.4,0.2
			l0.3-0.3v-1.2l0.3-0.3l0.4,0.1l0.3,0.3l4,6.1l0.7,1.7l0.3,1.9l-0.1,2.4l0.2,2.4l1.1,0.5l3.4-0.6l1,0.9l0.7,1l0.7,0.4l1.3-0.8
			l0.9-0.8l1-0.7l1-0.2l1.1,0.6l0.5,1.1l0.2,1.5l0.1,1.6l0.4,3v1.1l-0.3,1l-0.6,1.4l1.3-0.4l-0.3,0.9l-1,4.8l-0.3,0.3l-0.2,0.1
			l-0.3,0.1l-0.7,0.1l-2.6,0.1l-0.7,0.1l-0.8-0.1l-5.7-1.4l-1.2,0.1l-1-0.1h-0.9l-0.5,0.1l-1.8,0.9l-1.4-0.7l-4.5,1.2l-0.6,0.8
			l-0.5,0.4l-1.4,1.3l-0.2,0.3v0.4l0.5,0.7l0.7,1.4l-1.3,1.2l-3.6,1.2l-3.8,2.1l-0.8,0.7l-1.4,2.1l-2.8,2.7l-1,0.2l-0.6-0.2l-2-1.1
			l-0.9-0.7l-0.5-0.2l-0.8-0.2l-0.4-0.1l-0.3-0.2l-1.2-1.2l-0.3-0.1l-1.7-0.2l-0.2-0.2l2.7-3.8l-4.9,0.3l-1.4-0.2l-0.3-0.2l-0.3-0.2
			L675,342h-0.9l-2,1.8l-0.6,0.1l-1.2-0.1h-0.6l-0.7,0.4l-0.5,0.5l-0.4,0.6l-0.5,0.5l-1.1,0.7l0.1-0.5l0.4-1.9l-1.7-1l-3.9-0.9
			l-0.7-0.9l-0.1-1l0.4-0.7l0.9-0.1l1.5,1.3l0.8,0.3l0.1-1l-0.4-0.5l-7.9-8.9l-1.4-1.2l-0.1-0.2l-0.1-0.2l-0.8-0.9l0,0l0.3-1.3
			l-0.1-4.2l-0.2-1.3l-0.9-1.5l-0.9-1.2l-0.3-0.5l-0.1-0.4v-0.4l0.1-0.4l0.8-1.7l0.1-0.3l0.2-0.8l-0.2-0.5l-1.2-0.2l-0.2-0.2
			l-0.1-0.3v-0.9l-0.1-0.7l0.1-0.4l0.1-0.3l2.1-2.8l0.4-0.7L654.6,305.9z M658.7,328l-0.7,0.2l0.5,1.2l0,0l0.7,0.7l1.3,1.7l0.7,0.7
			l0.9,0.2l-0.1-1l-0.6-1.4l-0.6-1l-1-0.9L658.7,328z"/>
		<path class="st1" d="M728.9,328.7l2.5-0.8l1.6-0.2l0.3-0.3l0.5-1.5l0.2-0.4l0.8-0.6l0.6,0.4l1.2,1.9l0.9,0.6l1.2,0.4l2.3,0.2
			l0.2,0.2l0.1,0.2v0.3l-0.1,0.4v1.3l0.8,0.4l1.1,0.1l0.8,0.3l1.8,2.9l1.3,1.5l1.7,0.7l1.8,0.2l5.5-0.5l1.7,0.5l0.2,1.7l-0.1,0.9
			l0.5-0.1l2-1.4l3.2-1.5l0.7,0.5l0.6,0.8l0.9,0.6l2.5-0.2l1,0.2l0.4,0.1l0,0l0.2,1.1l-1.3,1.8l-2,1.2l-4,1.5l-3.7,2.3l-3.1,0.8
			l-1.5,0.6l-1,1.6l-0.5,3.8l-1.3,0.6l-1.6-0.7H749l-0.3,0.9l-0.1,0.8l-0.2,0.8l-0.4,0.7l-0.7,0.5l-1.7,0.1l-3-2.1l-1.7-0.2
			l-1.3-0.6l-1.4-1.7l-1.6-1.3l-1.3,0.6l-0.2,0.9l0,0l0.9,1.5l0,0v1l-0.3,0.9v0.6l0,0l0.4,0.5l1.9,1.4l0,0l0.2,0.5l0.3,0.6l0,0v1.3
			l-0.5,1.4l-0.9,1.2l-1,0.2l-1.2-0.4l-2.5-1.5l-0.6-0.2l-2,0.1l-0.5-0.2l0,0l0.2-0.5l0.5-0.1l0.7-0.1l0.6-0.2l0.2-0.6l0,0l-0.4-0.3
			l-0.8-0.1H730l0,0l-0.1-0.3l-0.4-1.3l-0.1-0.8l0.1-1l0.2-1.1v-0.7V354v0l-0.6-0.5l-2.2-0.7l-0.5-0.1l-0.3-0.3l-0.8-1.2l-0.6-0.4
			l-0.4,0.4l-0.5,0.6l-0.7,0.1l-2.6-0.6l-2-0.7l-1.2,0.1l-0.9,0.1l-1-0.2l-0.4-0.1l-0.3-0.2l-1.7-2.4l-0.4-0.7l-0.4-0.4l-0.5-0.3
			l-2.3-0.8h-0.7l-0.5,0.1L708,346h-0.4l-0.6-0.2l-1.2-0.6h-0.5l-0.3,0.2l-0.1,1l-0.2-0.1l-0.4-0.6l-0.9-1.8l-1.3-2l1.3-1.2
			l-0.7-1.4l-0.5-0.7v-0.4l0.2-0.3l1.4-1.3l0.5-0.4l0.6-0.8l4.5-1.2l1.4,0.7l1.8-0.9l0.5-0.1h0.9l1,0.1l1.2-0.1l5.7,1.4l0.8,0.1
			l0.7-0.1l2.6-0.1l0.7-0.1l0.3-0.1l0.2-0.1l0.3-0.3l1-4.8L728.9,328.7z"/>
		<path class="st1" d="M594.4,373.5l-1.4-0.7l-1-0.2l-7,1.1l-0.9,0.4l-1.5,0.9l-1,0.1l-2.5-0.4l-1,0.1l-2.4,0.6l0,0l0,0l-0.5-1
			l0.1-0.5l0.2-0.4l0.6-2.2l0.2-0.4l0.2-0.3l0.2-0.3l0.3-0.4v-0.1h-0.2l-13,3.1l-9.8-0.2l-1.2-0.2l-0.2-0.2l-0.3-0.4l-0.2-0.5
			l-0.2-1.5l0.1-0.9l0.2-0.8l5.1-11.7l-0.1-0.7H557l-0.8,0.2l-0.7,0.1l-0.2-0.2l-0.1-0.3l0.3-2.1v-1.4l0.1-0.3l0.2-0.2l0.3-0.1
			l0.6-0.1l2.4-0.4l0.6-0.6l0.1-2.3l3.4,1.8l5.1,2.7l0.1-0.1l0.1-0.1l0.3-0.3l0.3-0.3h0.3h0.3l0.2-0.2l0.2-0.2l0.1-0.3l0.1-0.3
			l0.2-0.1l0.2-0.1h0.3h0.3l0.9,0.4l0.9,0.4l0.6,0.1l0.6,0.1l0.5-0.3l0.5-0.3l0.1-0.4l0.1-0.4l-0.4-0.2l-0.4-0.2l0.5-0.9l0.5-0.9v0
			v-0.2l-0.2-0.3l-0.2-0.3l-0.1-0.4l-0.1-0.4L575,346l-0.1-0.4v-0.4v-0.4l-0.5-0.1l-0.5-0.1l-0.2-0.1l-0.2-0.1l-0.2-0.2l-0.2-0.2
			l-0.1-0.5l-0.1-0.5l-0.2-2.4l-0.2-2.4l0.1-0.4l0.1-0.4l0.1-0.1l0.1-0.1l0.1-0.1l0.1-0.1l0.1-0.3l0.1-0.3V336v-0.3l-0.1-0.6
			l-0.1-0.6V334l0.1,0.1h0.1l0.2,0.1l0.2,0.1l0.1,0.1l0.1,0.1l0.2-0.7l0.2-0.7l0.6-0.4l0.6-0.4l0.9-0.4l2.2,2l0.3,0.5l0.1,0.6
			l0.1,1.4l0.1,0.4l0.2,0.1l0.4-0.3h0.2l0.1,0.4l0.1,1l0.7-0.3l0.9,0.2l0.9,0.4l0.7,0.5l0.4,0.5l0.5,1l0.3,0.4l0.3,0.2l1.2,0.6
			l0.5,0.4l0.2,0.3l0.5,0.9v0.3l-0.1,0.7v0.3l0.3,0.3h0.3h0.3l0.3,0.1l0.6,0.5l0.5,0.7l0.1,0.8l-0.6,0.7l0.7,0.4l0.6-0.2l0.6-0.4
			l0.7-0.2l0.4,0.2l-0.2,0.6l-0.7,1.1l1.8-0.4l0.8,0.1l0.5,1.4l0.8,0.7l0.2,0.5l-0.2,0.5l-0.7,0.7v0.4l0.3,0.2l0.4-0.3l0.5-0.5
			l0.4-0.2l0.4,0.2l0.3,0.4v0.4l-1.1,0.5l-0.4,0.8l-0.5,2h0.5h0.5l0.4,0.1l0.4,0.3l-0.8,0.5l0.1,0.5l0.5,0.4l0.3,0.4l0.1,0.5
			l0.2,0.5l0.1,0.5l-0.2,0.5l-0.6,0.8l-0.2,0.4l-0.3,0.6l-0.1,0.4l-0.9,5.2l0.6,1.6l0.3,0.5l0.1,0.8l-0.6,2.2l-0.2,0.7L594.4,373.5z
			 M578.2,379.5l10.1-2l2,1.5l0.3,0.8l0.1,0.9l-0.1,0.8l-0.3,0.7l-1,0.2l-3.1-0.5l-0.9,0.3l-1.5,1.3l-0.5,0.2l-1-1.8l-0.7-0.5
			l-0.6,1l0.1,0.5l0.8,0.6l0.2,0.4L582,385l0.1,0.5l0.2,0.6l3.8,5.3l0.1,1.2l-1.8,0.8l-1-1.5l-0.7-2.4l-0.9-1.9l-0.9-0.6l-0.3,0.4
			l0.2,1l0.4,1.2l1,2.1v0.8l-0.5,1.1l-0.2,0.1l-0.5,0.1l-0.2,0.1l-0.3,0.9v0.5l-0.1,0.5l-0.3,0.4l-0.6-0.3l-1.2-1.9l-0.7-0.5
			l-1.5,1.3l-0.5-0.2l0.1-0.6v-0.9l0.2-0.5l0.1-0.4l0.1-0.3l-0.1-0.2l-0.2-0.2L575,391l-0.2-0.2l-0.1-0.2v-0.2l0.3-0.2h0.3l0.2,0.1
			l0.2,0.2l0.2,0.2h0.2l0.2-0.3l0.1-1.9V388l-0.1-0.3l-0.1-0.5l-0.3-1l-0.1-0.2v-0.1l-0.1-0.3l-0.2-0.5l-0.1-0.3v-0.4V384l0.2-0.6
			l0.7-1.2L578.2,379.5z"/>
		<path class="st1" d="M575.8,375.4l-1.8,0.5l-0.9,0.6l1.1,1.2l1.9,1.2l1.5,0.6l0.4-0.1l-1.8,2.5l-0.7,1.2l-0.2,0.6v0.4v0.4l0.1,0.3
			l0.2,0.5l0.1,0.3v0.1l0.1,0.2l0.3,1l0.1,0.5l0.1,0.3v0.5l-0.1,1.9l-0.2,0.3h0l-0.2-0.2l-0.2-0.2l-0.2-0.1h-0.3l-0.3,0.2v0.2
			l0.1,0.2l0.2,0.2l0.8,0.5l0.2,0.2l0.1,0.2l-0.1,0.3l-0.1,0.4l-0.2,0.5v0.9l-0.1,0.6h-0.1h-0.5l-0.4,1.2l-0.4,9l-0.2,1.3l-0.6,1.1
			l-1,1.1l-1.8,1.2L570,410l0.2,0.3l0.3,0.7l0,0l-0.9,0.4l-2.6,0.7l-2.1,0.2l-2.1-0.1l-3.5-1.3l-6.5-0.2l-14.7-3.8h-2l-1.6,0.5
			l-4,2.9l-3.5,0.5l-0.8,0.8l0.3,2.5l-0.2,0.2l-0.2,0.2l-0.2,0.1h-0.2l-1.1-0.1l-0.7,0.1l-3.3-2.9l-1.8-1.6l-0.6-0.7l-0.4-0.9
			l0.1-3.9l0.2-0.4l0.2-0.5l0.6-0.1h1.3h0.4l0.4-0.2l0.2-0.3l0.1-0.3V402v-0.3l-0.1-0.6l-0.1-0.3l-0.1-0.4V400v-1l0.1-0.4l0.1-0.2
			l0.3-0.4l0.7-0.5l1.3-0.7l0.9-0.3l1.2-0.3h0.3l0.7-0.2l0.2-0.4l-1.2-5.2l-0.7-1.2l-7.5-1.4l-1-0.1l-0.4,0.2l-0.4-0.1l-0.3-0.1
			l-0.7-0.5h-0.3l-0.3,0.1h-0.7l-0.5-0.1l-3.4-0.9l-0.5-0.9l-0.2,0.1h-0.2l-0.6,0.2l-1.5-1.7l-0.1-0.3v-0.5l0.1-0.4V382l-0.2-0.4
			l-0.3-0.2l-0.3-0.1h-0.3l-0.2,0.1l-0.8,0.4l-0.3,0.1l-0.3,0.1h-0.4l-0.5-0.1l-0.2-0.2l-0.1-0.3l-0.2-2.5v-0.3l0.1-0.3l0.2-0.1
			l0.8-0.3l0.2-0.2l0.1-0.2l0.2-0.5v-1.3l-1.2-1.5l-0.1-0.5v-0.4l0.1-0.3v-0.4l-0.1-0.3l-0.2-0.2l-0.9-0.4l-0.3-0.3l-0.1-0.3
			L501,371l-0.6-2.9l-0.1-1l-0.1-2.7V364v-0.4l0.1-0.3l0.4-0.9l0.3-0.8v-0.8l-0.1-0.5l-0.2-0.5l-0.3-0.7l-0.2-0.4l-0.2-0.2h-0.3
			l-1.1,0.2h-1l-0.7-0.1l-0.7-0.2l-1.8-0.5L489,358l-0.3-0.3l6.6-12.9l1.2-3l-0.9-1.7l-0.4-1l-0.1-0.3V338l0.1-1v-0.6V336l-0.1-0.3
			l-0.1-0.2l-0.2-0.2l-3.9-1.1l-0.6-0.3l-0.3-0.2l-0.4-0.4l-0.2-0.5l-0.1-0.3l-0.1-0.3l-0.7-8l0.5-0.7l0.4-0.9l5.3-2.1v-0.2l0.7,0.2
			l1.8,0.5l5-0.3l4.2-0.2l6.3-0.4l4.6-0.3l5.5-0.3l3.5-0.2l5.6-0.3l5.5-0.3l0.5,0.1l0.5,0.1l0.9,0.5l0.9,0.5l0.5,0.2l0.5,0.2
			l0.4-0.1l0.4-0.1l1.3-0.8l1.3-0.8l0.5-0.4l0.5-0.4l0.3,0.8l0.3,0.8h0.1l0,0l0.2,0.3l0.2,0.3l1,1.3l1,1.3l0.2,0.5l0.2,0.5l0.2,1.1
			l0.2,1.1l0.3,0.5l0.3,0.5l0.3-0.2l0.3-0.2l0.3-0.1l0.3-0.1h0.3h0.3l0.2,0.3l0.2,0.3l0.3-0.6l0.3-0.6h0.5h0.5l0.1,0.6l0.1,0.6v0.1
			v0.3l-0.1,0.3l0.2,0.1l0.2,0.1l0.1,0.1h0.1l-0.5,0.4l-0.5,0.4l-0.2,0.1l-0.2,0.1l0.2,0.1l0.2,0.1l0.1,0.1l0.1,0.1l0.2,0.3l0.2,0.3
			v1.6l-0.2,1l-0.2,1l-0.3,0.9l-0.3,0.9l-0.3,0.7l-0.3,0.7l-0.2,0.4l-0.3,0.4l-0.3,0.4l-0.3,0.4l-0.4,0.3l-0.4,0.3l-0.8,0.3
			l-0.8,0.4l-0.2,0.2l-0.2,0.2l-0.1,0.2l-0.1,0.2l0.1,0.1l0.1,0.1l0.8,0.2l0.9,0.2l0.7,0.4l0.7,0.4l2,2l2,2l1.4,1.1l1.5,1.1l1.7,0.9
			l-0.1,2.3l-0.6,0.6l-2.4,0.4l-0.6,0.1l-0.3,0.1l-0.2,0.2l-0.1,0.3v1.4l-0.3,2.1l0.1,0.3l0.2,0.2l0.7-0.1l0.8-0.2h0.4l0.1,0.7
			l-5.1,11.7l-0.2,0.8l-0.1,0.9l0.2,1.5l0.2,0.5l0.3,0.4l0.2,0.2l1.2,0.2l9.8,0.2l12.9-3.2h0.2v0.1l-0.2,0.4l-0.2,0.3l-0.2,0.3
			l-0.2,0.4l-0.6,2.2l-0.2,0.4l-0.1,0.5L575.8,375.4L575.8,375.4L575.8,375.4z"/>
		<path class="st1" d="M523.9,414.6l-0.4,0.5l-0.5,2.1l-0.3,2.2v2l-0.5,1.9l-0.3,1.9l-0.3,0.1l-0.4-0.1l-0.5,0.1l-0.1,0.1l-10.3-2.6
			l-2.3-0.1v0.3l0.1,0.5v0.3v0.3l-0.1,0.3l-0.2,0.2l-0.2,0.2l-0.2,0.1l-0.5,0.1l-4.8,0.2l-0.6-0.1L501,425l-0.3-0.2l-0.2-0.2
			l-0.2-0.3l-0.1-0.5l0.1-0.9l0.3-1.5l-0.2-0.8l-0.9-1.6l-0.9-0.1l-3.7-0.7l-3.4-0.5H491l-0.8,0.2l-0.7,0.4l-0.4,0.3l-0.3,0.3
			l-1.4,2.1l-0.4,0.4l-3.1,1.3h-0.4l-0.6-0.1l-0.7-0.4l-2.5-2l-1.1-0.7h-0.8l-6.3,1.5h-0.2l-4.1,2l-0.9,0.6l-0.7,0.2h-1.5l-2.9-0.8
			l-0.3-0.2l-0.2-0.3l-0.1-0.6v-0.4v-0.4v-0.9v-0.9l-0.1-0.3l-0.1-0.3l-1.1-0.8L458,417l-2.3-2.2l-0.5-0.6l-0.2-0.4l0,0l0,0
			l-0.1-0.3l-0.4-1.8l-0.1-0.2l-0.1-0.2l-0.2-0.2l-0.2-0.1l-0.3-0.1l-0.4-0.1h-1.4l-0.5,0.1l-0.4,0.3l-0.1,0.3v0.3v0.9v0.3l0.2,0
			l-0.1,0.3l-0.2,0.2l-0.9,0.7l-0.9,0.5l-0.5,0.2l-18.4-0.5l-2.3-4.6l-0.5-1.7v-0.3l1.3-2.9l0.1-0.5l0.1-0.5V403v-0.4l-1.3-4.7
			l-0.4-0.5l-0.3-0.4l-0.9-0.8l-1.3-1.5l-0.3-0.7l0.1-0.3l0.2-0.2l0.3-0.1l0.4-0.1l2.1-0.3l2.6-0.7l0.3-0.2l0.4-0.3l0.2-1l0.1-0.3
			l0.2-0.4l0.3-0.1h0.3l1.5,0.8l1.3,0.6l1.2,0.2h1.2l0.6-0.2l0.4-0.3l0.3-0.7l0.7-2.9l0.1-0.3l0.7-1.5l0.2-0.5v-0.3v-0.3l-0.2-0.2
			l-0.2-0.1l-0.3-0.1h-0.3l-0.1-0.2v-0.4l1.1-1.6l0.1-0.3l0.1-0.2l0.1-0.3l0.1-0.3l0.1-1.1v-0.7v-0.3l0.1-0.4l0.3-0.5l0.3-0.3
			l0.3-0.1h0.6l3.9,1.8l0.9,0.2l0.1,0.1l0.4,0.1l1.1,1.6l0.7,0.7l1.8,0.6l0.8,0.6l0.8,0.4l0.9-0.3l1.9,1.2l1.8,0.4l9.3-2l0.5-0.3
			l2.8-2.6l0.4-0.5l0.2-0.5v-0.4l-0.1-0.4l-0.3-0.3l-0.3-0.2l-0.4-0.1h-0.4l-0.8,0.1h-0.3l-0.2-0.1l-0.1-0.3l0.1-0.4l1.1-2.6
			l0.3-1.3l0.3-0.7l0.4-0.7l1.1-1.5l0.2-0.4v-0.5l-0.7-0.6l-0.2-0.3l-0.1-0.4v-0.4l0.6-1.3l0.3-1.2l-0.2-2l-0.5-1.3v-0.4l0.2-0.3
			l0.8-0.4l0.3-0.3l0.3-0.7v-0.4l-0.2-0.5l-0.3-0.5l-0.4-1v-0.9l0.1-0.9l0.6-1.5l0.4-0.7l0.4-0.6l0.5-0.6l0.5-0.4l0.6-0.2l0.6,0.1
			l0.6,0.3l0.9,0.7l0.8,0.4l0.8,0.3l0.7,0.1l0.9-0.1l1-0.5l3.1-2.1l0.4-0.2h0.4l0.5,0.3l1.2,1.1l1.5,1.7l0.1,0.2l0.1,0.3v0.5
			l-0.3,0.9v0.3v0.2l0.1,0.2l0.1,0.3l0.5,0.6l0.8,0.8l0.3,0.3l5.4,0.2l1.8,0.5l0.7,0.2l0.7,0.1h1l1.1-0.2h0.3l0.2,0.2l0.2,0.4
			l0.3,0.7l0.2,0.5l0.1,0.5v0.8l-0.3,0.8l-0.4,0.9l-0.1,0.3v0.4v0.4l0.1,2.7l0.1,1l0.6,2.9l0.1,0.3l0.1,0.3l0.3,0.3l0.9,0.4l0.2,0.2
			l0.1,0.3v0.4l-0.1,0.3v0.4l0.1,0.5l1.2,1.5v1.3l-0.2,0.5l-0.1,0.2l-0.2,0.2l-0.8,0.3l-0.2,0.1l-0.1,0.3v0.3l0.2,2.5l0.1,0.3
			l0.2,0.2l0.5,0.1h0.4l0.3-0.1l0.3-0.1l0.8-0.4l0.2-0.1h0.3l0.3,0.1l0.3,0.2l0.2,0.4v0.8l-0.1,0.4v0.5l0.1,0.3l1.5,1.7l0.6-0.2h0.2
			l0.2-0.1l0.5,0.9l3.4,0.9l0.5,0.1h0.7l0.3-0.1h0.3l0.7,0.5l0.3,0.1l0.4,0.1l0.4-0.2l1,0.1l7.5,1.4l0.7,1.2l1.2,5.2l-0.2,0.4
			l-0.7,0.2h-0.3l-1.2,0.3l-0.9,0.3l-1.3,0.7l-0.7,0.5l-0.3,0.4l-0.1,0.2L521,399v0.8v0.5l0.1,0.4l0.1,0.3l0.1,0.6v0.3v0.7l-0.1,0.3
			l-0.2,0.3l-0.4,0.2h-0.4h-1.3l-0.6,0.1L518,404l-0.2,0.4l-0.1,3.9l0.4,0.9l0.6,0.7l1.8,1.6L523.9,414.6z"/>
		<path class="st1" d="M520.5,425.5l-0.3,0.3L520,426l-0.1,0.4l-0.1,0.8l0.3,2.2l0,0l1.2,1.1l5.2,1.9l3.5,0.1l1.7,0.7l0.2,0.2
			l0.3,0.6l0.2,0.3h0.3l0.7-0.1l0.3,0.1l0.4,0.7l0,0l0.1,0.8l-0.5,4.3l0.2,1.4l0,0l0,0l-0.6,0.5l-0.8,0.3l-3.1,0.1l-0.5,0.1
			l-0.5,0.2l-0.3,0.1l-0.3,0.2l-0.3,0.3l-0.3,0.4l-0.1,0.4v0.5l0.3,1.3l0.3,2l1,1.9l0.1,0.2l0.1,0.3v0.3v0.4l-0.1,0.3v0.3v0.3v0.3
			v0.3l0.1,0.3l0.1,0.3l0.1,0.6v0.3v0.3l-0.1,0.4l-0.2,0.4l-0.5,0.7l-0.2,0.5l-0.1,0.4v1l-0.1,0.3l-0.2,0.2h-0.3l-0.2-0.1l-0.8-0.8
			l-0.2-0.1l-0.2-0.1l-0.3-0.1l-0.6-0.2l-0.7-0.1h-0.6l-0.5,0.1l-0.6,0.3l-0.4,0.3l-0.3,0.3l-0.2,0.3l-2.6,5l-0.4,0.6l-0.8,0.8
			l-0.4,0.3l-0.7,0.3l-1.7,0.4l-0.4,0.8l-0.5,0.8l-0.8,0.9l-1.6,1.3l-0.3,0.3l-0.3,0.7l-0.2,0.9l-0.5,2.8l-0.3,1.3l-0.1,0.3
			l-0.5,0.6l-4.8,3.8l-2.5,1.4l-0.5,0.1l-1.6,0.3l-0.4,0.3l-0.4,0.5l-0.7,1.1l-0.5,1.1l-0.2,0.6l-0.2,0.7l-0.3,0.7l-0.3,0.6
			l-5.3,4.9l-0.4,0.5l-0.3,0.9l-0.2,2.1l-0.2,0.7l-0.7,1.3l-1.3,0.8l-0.5-1.5l0,0l-1.5-1l-1.6-0.8l-1.6-0.5h-3.3l-1.3-0.4l-4.4-2
			l-2-2.5l-1.3-1.2L470,488l-2.8-0.8l-2.7-2.2l-1.2-0.6l-2.8-0.5l-4.3-2.1l-1.5-0.1l-1.2,0.5l-2.1,1.7l-1.1,0.6l-3,0.3l-2.9-1
			l-7.1-4.8l-4.3-2.9l-5.8-3.9l-4.1-3.7l-5.7-5.3l-2.9-1.8l-6.3-2.2l-5.5-3.2l-9.1-7.7l-2.5-3.2l0,0l0.7-0.7l3.9-4.3l2-1.4l5.9-2.4
			l2.3-0.8l7.2-2.6l0.3-0.1l0.2-0.2l0.1-0.5v-0.3l-0.1-0.3l-0.1-0.2l-1.4-1.7l-0.3-0.4l-0.2-0.5l-0.1-0.3v-0.3v-0.3v-0.3l0.3-0.5
			l0.4-0.6l3.3-3.6l0.3-0.2l0.3-0.1l0.5-0.1h0.4l0.5-0.2l0.5-0.4l4.3-4.3l2-1.5l4.3-1l0.8-0.5l18.4,0.5l0.5-0.2l0.9-0.5l0.9-0.7
			l0.2-0.2l0.1-0.3l0.1-0.3v-0.3v-0.9v-0.3l0.1-0.3l0.4-0.3l0.5-0.1h1.4l0.4,0.1l0.3,0.1l0.2,0.1l0.2,0.2l0.1,0.2l0.1,0.2l0.4,1.8
			l0.1,0.3l0,0l0,0l0.2,0.4l0.5,0.6l2.3,2.2l1.3,0.9l1.1,0.8l0.1,0.3l0.1,0.3v0.9v0.9v0.4v0.4l0.1,0.6l0.2,0.3l0.3,0.2l2.9,0.8h1.5
			l0.7-0.2l0.9-0.6l4.1-2h0.2l6.2-1.4h0.8l1.1,0.7l2.5,2l0.7,0.4l0.6,0.1h0.4l3.2-1.3l0.4-0.4l1.4-2.1l0.3-0.3l0.4-0.3l0.7-0.4
			l0.8-0.2h0.6l3.4,0.5l3.7,0.7l0.9,0.1l0.9,1.6l0.2,0.8l-0.3,1.5l-0.1,0.9l0.1,0.5l0.2,0.3l0.2,0.2l0.3,0.2l0.3,0.1l0.6,0.1
			l4.8-0.2l0.5-0.1l0.2-0.1l0.2-0.2l0.2-0.2l0.1-0.3v-0.3v-0.3l-0.1-0.5v-0.3l2.3,0.1L520.5,425.5z"/>
		<path class="st1" d="M534.1,441.4l0.7,0.7l5.5,0.9h1.2l3.3-1.1l0,0l0.6-0.3l0.6-0.2h0.6l0.7,0.3l0.3,0.2l0.7,0.6l0.7,0.1l0.7-0.3
			l0.7-0.5l0.3-0.1h0.4h0.3l0.3,0.1l0,0l0.7,0.8l1.5,3.2l0.8,1.2l0.4,0.7l0.4,1.1v1.2l-0.4,0.9l-0.5,0.8l-0.7,0.6l-0.7,0.4l-1,0.2
			h-0.8l-0.5,0.3l-0.1,1.2l0.1,0.6l0.3,0.5l0.2,0.5v0.6l-0.2,0.3l-1.1,0.8l-0.3,0.8l0.1,1l0.6,2.1l0.1,1.1l-0.2,3.1l0.1,1.2l0.3,0.7
			l1,1.6l0.3,0.8l0.1,1.8l0.1,0.8l0.4,0.8l1.7,1.6l1.6,2.9l0.7,0.8l2.2,1.3l3.4,3.1l1,1.7l0.2,2.1l-0.7,3.2l-1.1,3l-1.7,2.6l-0.5,1
			l0,0l-0.3,0.9l-0.2,0.8l-0.3,0.7l-0.5,0.3l-0.2,0.2l-0.7,0.2l-2,0.3l-1.3,0.5l-0.8,0.8l-1.8,5.6l-1.3,2.5L547,514l-2.3,2.2
			l-2.2,2.8l-1.8,3.2l-1.2,3.3l-0.2,2.3l0.8,4.3l0.2,2.3l-0.2,1.9l-0.5,1.8l-0.8,1.6l-0.2,0.8l-0.2-1L538,539l-0.8-0.5l-0.9-0.2
			l-1.5,0.1l-0.5-0.1l-0.5-0.2l-0.9-0.7l-0.5-0.2l-0.5,0.1l-0.8,0.3h-0.5l-0.3,0.3l-0.3,0.5l-0.3,0.5l-0.5,0.2l-0.7-0.6l-0.8-2.2
			l-1-0.5l-0.9,0.3l-0.8,0.6l-1.4,1.5l-0.8,0.6l-0.9,0.5l-0.9,0.3l-1,0.1l-1.1,0.3l-1.7,1.1l-1,0.2l-1-0.4l-0.5-0.8l-0.3-1l-0.4-0.9
			l-0.9-0.8l-1.9-0.7l-0.9-0.5l-0.4-0.8l-0.7-2.3l-0.5-0.5l-0.9-0.3l-1.7-1.3l-0.8-0.4h-2.1l-4,0.9l-5.6,0.3l-0.5,0.2l-0.9,0.7
			l-0.5,0.2h-1.2l-0.5-0.1l-2.7-1.3l-1-0.1l-1.1,0.1l-0.8,0.3l-1.1-0.8l0.1-1l0.6-0.9l0.8-0.8l0.7-1.1l-0.2-0.9l-0.7-0.7l-0.9-0.7
			l-0.6-1.5l0.2-1.9l0.9-3.7l0.2-2.2l-0.3-4.3l0.2-2.1l1.5-2.7l2.4-3.1l1.6-3.1l-0.4-1.1l1.3-0.8l0.7-1.3l0.2-0.7l0.2-2.1l0.3-0.9
			l0.4-0.5l5.3-4.9l0.3-0.6l0.3-0.7l0.2-0.7l0.2-0.6l0.5-1.1l0.7-1.1l0.4-0.5l0.4-0.3l1.6-0.3l0.5-0.1l2.5-1.4l4.8-3.8l0.5-0.6
			l0.1-0.3l0.3-1.3l0.5-2.8l0.2-0.9l0.3-0.7l0.3-0.3l1.6-1.3l0.8-0.9l0.5-0.8l0.4-0.8l1.7-0.4l0.7-0.3l0.4-0.3l0.8-0.8l0.4-0.6
			l2.6-5l0.2-0.3l0.3-0.3l0.4-0.3l0.6-0.3l0.5-0.1h0.6l0.7,0.1l0.6,0.2l0.3,0.1l0.2,0.1l0.2,0.1l0.8,0.8l0.2,0.1h0.3l0.2-0.2
			l0.1-0.3v-1l0.1-0.4l0.2-0.5l0.5-0.7l0.2-0.4l0.1-0.4v-1v-0.3l-0.1-0.6l-0.1-0.3l-0.1-0.3v-0.3V452v-0.3v-0.3l0.1-0.3v-0.4v-0.3
			l-0.1-0.3l-0.1-0.2l-1-1.9l-0.3-2l-0.3-1.3v-0.5l0.1-0.4l0.3-0.4l0.3-0.3l0.3-0.2l0.3-0.1l0.5-0.2l0.5-0.1l3.1-0.1l0.8-0.3
			L534.1,441.4z"/>
		<path class="st1" d="M162.7,73.4l2.8,1.9l7.4,5l6.5,4.4l-0.1,0.3l-1.1,1.4l-0.5,1.2l-0.9,2.7l-0.6,1.8l-1.2,2.1l-1,1.2l-0.4,2.1
			l-0.6,2.1l-0.6,1.5l-0.8,1.4l-1.5,2l-0.6,1.5l-0.5,1.5l-0.3,1.5l0.6,3l1.1,2.6l1.4,1.8l3.5,4.1l5.4,5.4l2.8,2.7l2.2,1.6l2.3,1.8
			l0.5,0.5l0.2,0.8l-0.2,1.6l-0.9,1.4l-2,1.3l-0.6,1.8l-0.7,1.8l-1,1.8l0.6,1.6l2.1,0.3l1.9-0.1l1.7-0.5l1.1-1l1.6-0.1l1.7,0.3
			l1.6-0.6l1.8-1.2l2.5-1.6l1.1-1.5l0.2-0.8l-0.6-0.7l-0.8-0.1l-0.7-0.3l-0.5-0.4l-0.1-0.5v-0.6l0.3-0.5l0.3-0.7l0.5-0.5l0.4-0.4
			h0.7l1.1,0.1l1.2,0.2l0.8-0.2l0.6-0.7l0.3-0.8l0.6-2l0.3-1.9l-0.2-1.9l-0.5-3.2l-0.7-2.5l-1-2l-0.3-1.9l-0.1-1.7l0.8-1l0.8-0.6
			l0.8-1l0.6-1.4l0.3-1.6v-2.3l0.1-2.9v-1.5l0.8,0.6l8.4,5.6l8,5.4l7.2,4.8l6.3,4.2l5.1,3.4l3.8,2.5l2.7,1.8l1.1,1.3l0.8,1.6
			l0.3,1.5l0.3,3.1l0.4,1.4l2.5,4.1l5,5.4l2.4,2.6l2.4,2.6l3,3.5l2.5,2.9l2.5,2.9l2.5,2.9l2.5,2.9l2.4,2.8l2.4,2.8l2.4,2.8l2.4,2.8
			l3.2,3.7l0.9,0.4l0.9,0.4h0.1l4.6,7.9l2.2,2l11.6,3.2l0.7,0.4v0.6l-0.2,0.7L298.6,222l-11,21.3l-2.4,5.6l-1,12.1v0.7l0.1,0.6
			l4.9,9.1l0.9,1.8l-0.2,0.3l-0.5,0.5l-9.3,5.2l-0.9,0.8v0.8l0.3,0.8l18.5,25.5l12.3,17.1v0.8l-9.7,4.7l-2.3,0.7l-0.6-0.2l-0.6-0.4
			l-0.2-0.2l-5.1-8.2l-7.3-8.1l-2.5-2l-2-1.2l-2.1-0.9l-8.2-2h-2.3l-0.9,0.2l-0.8,0.4l-0.7,0.5l-0.7,0.8l-1.7,3.3l-0.8,0.6l-1.1,0.1
			l-1-0.4l-0.3-0.2l-0.7-0.3l-0.5-1.7l-0.5-0.8l-2.3-2.6l-0.8-0.5l-2.5-0.5l-1-0.4l-1.3-1.2l-1.5-1.8l-0.5-0.3l-0.5-0.2l-1.1-0.2
			l-10.2-9.3l-1.4-1.6l-1.1-2l-0.7-2.2l-0.5-1l-0.7-0.4l-2.1-0.1l-0.9-0.2l-0.7-0.5l-0.6-0.8l-1.2-2.2l-0.5-1.5l-1.2-1.8l-0.3-0.9
			v-2.6l-0.1-1.2l-0.6-0.5l-2.1-0.2l-2.2-0.6l-0.5-0.3l-0.9-0.7l-0.7,0.1l-0.3,0.1l-0.8,0.7l-2.2,1.5l-0.9,0.4h-1.2l-0.7,0.1
			l-0.3,0.2l-0.1,0.3l0.1,0.3l0.1,0.3l0.5,1l0.1,0.6l-0.5,1.3l-0.5,0.6l-1-1.5l-1.3-1.1l-4.5-1.7l-2.2,0.1l-0.6-0.3l-0.5-0.8
			l0.1-0.8l0.5-0.6l0.8-0.2l0,0l2.6-1l-0.1-2.3l-0.8-2.9l0.4-2.7l0.7-0.5l0.9-0.4l0.7-0.5l0.1-1l-0.5-0.8l-1-0.6l-1.9-0.8l-1.5-1.4
			l-1.1-1.9l-1.4-1.5l-2-0.2l-1.9,0.2l-3.7-0.3l-9.1,1.4l-2.2-0.1l-1.1-0.4l-1.7-1.9l-1-0.4l-2.2-0.2l-1.2-0.7l-0.6-1l-0.5-4.4
			l-0.4-1.1l-0.6-1l-2.7-2.9l-1-0.7l-1.1,0.1l-1.3,0.6l-1.2,0.3l-1.3,0.1l-1.9-0.3l-3-1.4l-2.9-2.7l-9.3-11l-1.1-0.6l-0.8,1.3
			l-0.6,5l-0.9,1.7l-1.8,0.5l-2.2-0.1l-2.2-0.5l-4.6-1.9h-1.1l-0.8,0.3l-2.3,1.4l-1.6,0.7l-0.8,0.6l-0.4,0.9l0.3,1.1l0.8,0.7
			l5.4,2.5l1.5,1.2l1.3,2l1.1,2.7l3.2,5.2l1.7,2.1l0.5,0.5l0.2,0.5l-0.1,0.5l-0.5,0.3l-2.8,0.4l-0.7-0.2l-0.5-0.8v-0.9l0.2-1
			l0.1-1.1l-0.4-2l-1.1-1.5l-1.5-1.1l-4.3-2l-0.9-0.2l-0.8,0.1l-1.6,0.7l-0.7,0.1l-0.7-0.4l-1-1.5l-0.6-0.6l-0.8-0.3h-1l-1,0.2
			l-0.8,0.4l-0.5,0.6l-0.4,0.7l-1.1,1.3l-1.2,0.5l-0.7,0.6l0.2,1.5l0.9,2l0.1,0.9l-0.4,1.4l-1.8,4l-0.6,0.7l-1.7,0.5l-0.3,0.8
			l0.3,0.9l0.6,0.6l0.1,0.5l-1,0.7l-0.8,0.2l-2.9-0.1l-0.8,0.2l-2.4,1.2l-2,0.4l-6.1-1.1l-4,0.1l-4,2l-3.5,3.4l-2.4,4.5l0,0
			l-1.6,2.4l-1.8,1.4l-4.1,2l-1.3,1.7v2.2l1,4.6l-0.1,2.2l-0.3,1.9v1.8l0.6,2.1l1,1.6l0.5,1.5l0.2,1.7v2l0.2,1.6l0.6,1.6l0.8,1.4
			l1,1.1l0.6,0.4l0.7,0.3l2.2,0.5l0.3,0.3l-0.1,0.4l-0.5,0.6l-0.9,0.7l-2,1l-0.8,1l-1.5,2.4l-0.8,0.5l-5.3-1.1l-4.1-0.9l-9.6-0.5H54
			l-8.9-0.5l-8-0.4l-7-0.4v-217h0.1l4-1.3l4-1.3l4-1.3l4-1.3l4-1.3l4-1.3l4-1.3l3.2-1l0.9-0.3l4-1.3l4-1.3l4-1.3l4-1.3l4-1.3l4-1.3
			l4-1.3l4-1.3l5.8-1.9l5.4-1.7l5.4-1.7l5.4-1.7l2.5-0.7l2.5-0.7l2.5-0.7l2.5-0.8l2.6-0.8l2.6-0.8l2.6-0.8l2.6-0.8l3.5-1l1,0.1
			l1.2,0.5l0.4,0.3V60l-0.7,1.8l-0.2,1.1l-0.2,0.7l-0.6,1.3l-0.2,0.7v1.8l-0.1,0.4l-0.2,0.2l-0.4,0.2l-0.2,0.1l-0.1,0.2l-0.4,1.1
			l-1.4,2.1l-0.2,0.4l-0.1,0.2l-0.4,0.4l-2,2.8l-0.2,0.4l-0.1,0.5l-0.1,1.5l-0.5,1.7l-0.6,1.3l-0.2,0.9l-0.2,2l-0.2,0.9l-0.4,1
			l-0.4,0.9l-0.3,0.4l-0.6,0.7L131,88l-0.2,0.4l-0.1,0.4l-0.1,0.9l-0.2,0.8l-2.9,7.1l-0.4,2.7l-0.1,1.8v1.8l0.9,2.6l0.9,2.3l1.2,2
			l0.7,2.6l-0.1,1.4l-0.2,1l-0.4,0.9l-0.9,0.6l-1.1,1.5l-0.2,1l-0.3,0.6l-0.2,0.5l-0.1,0.5l0.3,2.2l0.7,2.4l1.1,1l0.9,0.9l1.7,0.3
			l2.1-0.2l2.1-1.2l2.3-1.8l1.9-1.8l1.3-1.7l0.6-1l0.5-0.9l0.9-1l1.1-1.5l1-1.7l0.8-1l0.7-1.1l0.2-0.8l-0.6-1.1l-0.9-0.4l-1.1-0.4
			l0.6,1.4l-0.7,0.2l-1.1-0.3l-0.4-0.8l0.4-2.3l0.5-1l0.3-0.8l0.9-0.3l0.6-0.3l0.9,0.3l0.2,1.2l0.2,0.8l0.6,0.6l0.9,0.2l1.4-0.3
			l0.8-0.9l-0.2-1.2l-1-0.9l-0.5-0.9l0.4-1.5l0.1-2l-0.5-2l-0.3-2.1v-1.2l0.9-0.3L151,96l0.6-1.4l0.2-1.5l0.3-1.1l0.3-1.8l-1-0.6
			l-1,0.8l-0.8,1.5l-1.6,0.9l-1.1,0.2l-1.1,0.9l-1.3-0.9l-0.1-1.3l0.5-1.5l0.8-1.7l0.6-1.5l1.4-1.5l0.6-1.2l1.2-1.2l1.3-1.2l1-0.4
			l-2-1.5l-1.1-1.4l-1-3.8l-0.4-2.4l-0.1-1.6l0.1-1.8l0.6-2.1l0.6-1.8l0.4-0.8l0,0l4.2,2.8l5.5,3.7L162.7,73.4z"/>
		<path class="st1" d="M290.8,184.6l3.6-0.6l1.5-0.3l1.5-0.3l1.5-0.3l1.5-0.3l2.4-0.4l2.4-0.5l2.4-0.4l2.4-0.4l3.9-0.6l3.9-0.6
			l3.9-0.6l3.9-0.6l3.9-0.6l3.9-0.6l3.9-0.6l3.9-0.6l6.6,0.6l6.6,0.6l6.6,0.6l6.6,0.6l6,0.6l6,0.5l6,0.6l6,0.5l2.4,0.2l0.8-0.2
			l0.8-0.2l4.3-2.4l4.1-2.3l4.3-2.4l4.2-2.3l0.8-0.3l0.8-0.3l0.7,0.1l0.7,0.1l0.7,0.6l0.7,0.7l4.6,6.1l4.6,6.1l2.1,2.3l2.1,2.3
			l4.4,2.8l4.4,2.8l0.9,0.8l0.9,0.8l3.7,7.6l2.3,4.8l3.2,6.7l2.8,5.7h0.4h0.4l6.1-3.3l6.2-3.4l-0.9,14.6l-0.9,14.6l-0.1,1.5
			l-0.1,1.5l-0.2,0.5l-0.2,0.5l-0.5,0.2l-0.5,0.2l-0.1,0.4l-0.1,0.4v1.8l-0.1,9.6l-0.2,11.3v0.3v0.3l0.2,0.1l0.2,0.1h5.2h4.7h4.7
			h5.2h0.2h0.2h0.3h0.1h0.1l0.1,0.1l0.1,0.1l0.7,7.3l0.8,7.3l1.4,7.1l1.4,7.1l1.9,8.5l1.8,8.5l1,1.2l1,1.2l1.1,0.3v0.2l-5.3,2.1
			l-0.4,0.9l-0.5,0.7l0.7,8l0.1,0.3l0.1,0.3l0.2,0.5l0.4,0.4l0.3,0.2l0.6,0.3l3.9,1.1l0.2,0.2l0.1,0.2l0.1,0.3v0.4v0.7l-0.1,1v1
			l0.1,0.3l0.4,1l0.9,1.7l-1.2,3l-6.6,12.9l-0.8-0.8l-0.5-0.6l-0.1-0.3l-0.1-0.2v-0.2v-0.3l0.3-0.9v-0.5l-0.1-0.3l-0.1-0.2l-1.5-1.7
			l-1.2-1.1l-0.5-0.3h-0.4l-0.4,0.2l-3.1,2.1l-1,0.5l-0.9,0.1l-0.7-0.1l-0.8-0.3l-0.8-0.4l-0.9-0.7l-0.6-0.3l-0.6-0.1l-0.6,0.2
			l-0.5,0.4l-0.5,0.6l-0.4,0.6l-0.4,0.7l-0.6,1.5l-0.1,0.9v0.9l0.4,1l0.3,0.5l0.2,0.5v0.4l-0.3,0.7l-0.3,0.3l-0.8,0.4l-0.2,0.3v0.4
			l0.5,1.3l0.2,2l-0.3,1.2l-0.6,1.3v0.4l0.1,0.4l0.2,0.3l0.7,0.6v0.5l-0.2,0.4l-1.1,1.5l-0.4,0.7l-0.3,0.7l-0.3,1.3l-1.2,2.7
			l-0.1,0.4l0.1,0.3l0.2,0.1h0.3l0.8-0.1h0.4l0.4,0.1l0.3,0.2l0.3,0.3l0.1,0.4v0.4l-0.2,0.5l-0.4,0.5l-2.8,2.6l-0.5,0.3l-9.3,2
			l-1.8-0.4l-1.9-1.2l-0.9,0.3l-0.8-0.4l-0.8-0.6l-1.8-0.6l-0.7-0.7l-1.1-1.6l-0.4-0.1l-0.1-0.1l-0.9-0.2l-3.9-1.8h-0.6l-0.3,0.1
			l-0.3,0.3l-0.3,0.5l-0.1,0.4v0.3v0.7l-0.1,1.1l-0.1,0.3l-0.1,0.3l-0.1,0.2l-0.1,0.3l-1.1,1.6v0.4l0.1,0.2h0.3l0.3,0.1l0.2,0.1
			l0.2,0.2v0.3v0.3l-0.2,0.5l-0.7,1.5l-0.1,0.3l-0.7,2.9l-0.3,0.7l-0.4,0.3l-0.6,0.2h-1.2l-1.2-0.2l-1.3-0.6l-1.5-0.8h-0.3L431,390
			l-0.2,0.4l-0.1,0.3l-0.2,1l-0.4,0.3l-0.3,0.2l-2.6,0.7l-2.1,0.3l-0.4,0.1l-0.3,0.1l-0.2,0.2l-0.1,0.3l0.3,0.7l1.3,1.5l0.9,0.8
			l0.3,0.4l0.4,0.5l1.3,4.7v0.4v0.8l-0.1,0.5l-0.1,0.5l-1.3,2.9v0.3l0.5,1.7l2.3,4.6l-0.8,0.5l-4.3,1l-0.1-1.6l-0.1-0.4l-0.4-1.5
			l-0.3-0.6l-0.2-0.3l-0.7-1l-0.8-0.8l-0.6-0.4l-1-0.4l-0.8-0.5l-0.4-1.2l-0.1-1.2v-0.9l-0.4-1.2l-0.8-1.3l-5.3-2.4l-0.4-0.6
			l-0.6-0.1l-1.9,0.9h-0.8l-0.6-0.3l-0.1-0.5l-0.2-0.5l-0.1-0.3l-2-1.1l-1.2-0.8l-3.1-4.4l-0.7-1.4l0.6-1.4l0.7-1.6l1.4-1.8l0.1-0.3
			l0.3-0.4l0.3-0.7l2.6-1.2l0.8-0.5l0.8-0.7l0.6-0.8l2-4.2l0.7-0.5h0.4l0.3-0.3l0.3-0.2l0.3-0.1l1.3-0.1v-0.2l-0.2-0.4l-0.7-0.8
			l-1.3-1.3l-0.5-0.8l-0.1-0.2v-0.1l0.2-0.1l0.4-0.4l0.7-2.1l-1.1-1.1l-0.2-1.1V367l0.1-0.5l0.1-0.5l0.4-0.5l0.7-0.4l1.5-0.3h1
			l0.8,0.2l0.9,0.8l0.9,0.6l1,0.3h5.1l0.5-1l1-3.1l0.8-0.8l0.9-1.1l1.1-3.6l0.1-0.7l0.5-0.7l0.3-0.3l0.4-0.1h0.4l2.3,0.5h0.6v-0.6
			l-0.2-0.7l-0.1-1.1V352l0.1-1.5l0.2-1.5l1-3.5l-2.1,0.6l-13.1-0.9l-4.3-1l-1.5-0.9l-1.5-1.3l-0.6-1.7l-0.4-1.5l-0.9-5.7l-0.4-1.4
			l-0.5-0.1l-1.4,2l-1.4,0.6l-1.9,0.4l-5.7,0.3l-1.5,0.5l-0.8,0.4l-1.3,5.1l-1,0.9l-11.7-1.4L381,340l-0.6-1.2l-0.1-3.8l-0.2-2
			l-0.9-1.3l-0.8-0.7l-0.8-0.2l-0.9,0.3l-0.9,0.7l-0.8,1.1l-2.6,5.4l-3.1,4.6l-5.1,1.8l0.1-1.1l-1.6-1.6l-1-1.7l-13-8l-6.6-3.7
			l-5.7-2.2l-3.8-0.9l-1-0.6l-5.7-10.3l-7.3-8.6l-1.1-1.9l-1.4-3.2l-3.6-0.1l-15.3,5.8l-18.5-25.5l-0.3-0.8v-0.8l0.9-0.8l9.3-5.2
			l0.5-0.5l0.2-0.3l-0.9-1.8l-4.9-9.1l-0.1-0.6v-0.7l1-12.1l2.4-5.6l11-21.3l11.7-22.2l0.2-0.7V198l-0.7-0.4l-11.6-3.2l-2.2-2
			L290.8,184.6z"/>
		<path class="st1" d="M246.7,315.9l-0.6,1l-0.3,0.3l-0.3,0.2l-2.1-2.1l-3-0.7l-8.7,0.5l-5.2,1.8L224,317l-1.5-0.4l-1.2-0.9
			l-2.3-2.4l-2.6-1.9l-4.1-2.1l-4.7-2.4l-1.2-1.2l-0.3-1.4l0.5-4.6l0.3-1l0.6-0.8l0.7-0.6l1.8-0.9l0.6-0.7l-0.4-1.1l-2.9-4.1
			l-1.3-2.6l-0.4-2l1.1-1.6l1.2-0.8l1.4-0.1l1.6,0.5l1.5,0.9l0.8,0.4l0.7-0.1l0.5-0.8l-0.1-0.8l-0.4-0.8l-0.5-0.7l-0.6-0.5l-2-1.2
			l-0.6-0.7l-0.5-0.8l0.5-0.6l0.5-1.3l-0.1-0.6l-0.5-1L210,275l-0.1-0.3l0.1-0.3l0.3-0.2l0.7-0.1h1.2l0.9-0.4l2.2-1.5l0.8-0.7
			l0.3-0.1l0.7-0.1l0.9,0.7l0.5,0.3l2.2,0.6l2.1,0.2l0.6,0.5l0.1,1.2v2.6l0.3,0.9l1.2,1.8l0.5,1.5l1.2,2.2l0.6,0.8l0.7,0.5l0.9,0.2
			l2.1,0.1l0.7,0.4l0.5,1l0.7,2.2l1.1,2l1.4,1.6l10.2,9.3l1.1,0.2l0.5,0.2l0.5,0.3l1.5,1.8l1.3,1.2l1,0.4l2.5,0.5l0.8,0.5l2.3,2.6
			l0.5,0.8l0.5,1.7l0.7,0.3l0.3,0.2l1,0.4l1.1-0.1l0.8-0.6l1.7-3.3l0.7-0.8l0.7-0.5l0.8-0.4l0.9-0.2h2.3l8.2,2l2.1,0.9l2,1.2l2.5,2
			l7.3,8.1l5.1,8.2l0.2,0.2l0.6,0.4l0.6,0.2l2.3-0.7l7,7.9l1.4,2.2l0.5,1.9l-2.2,4.8l-9,11.2l0,0l-0.1-0.1l-0.4-1.3l-0.3-0.5
			l-1.6-2.1l-0.6-1.2l-0.9-3.5l-0.5-0.8l-1.4-1.5l-0.5-0.8l-0.3-1.2l-0.5-2.6l-1.4-4.8l-0.5-1.1l0.3-0.4l-0.2-0.8l-0.1-4l-0.1-1.2
			l-0.4-0.9l-3.2-5.3l-0.8-0.9l-9.6-7.1l-3.7-1.6l-4.2-1.1l-1.6-0.2l-1,0.5l-0.6,1.2l-0.4,2l-1.1,0.6l-0.8,1.8L260,320l-1.5,0.8
			h-1.6l-1.8-0.7l-4.4-3.2H250l-2.6,0.4l-0.2-0.5l-0.1-0.5l-0.2-0.1L246.7,315.9z"/>
		<path class="st1" d="M391.6,444.9l-1.3-1.7l-1-0.6l-1.3,0.2l-3.3,1.7l-1.1,0.2l-1.3-0.2l-1.3-0.7l-6.9-5l-6-4.3l-4.8-3.4l-2.6-2.7
			l-4.6-6.5l-2.7-2.6l-6-4.3l-14.2-10.2l-7-5l-5.9-4.2l-5-3.6l-2.5-2.5l-0.5-0.3l-3.1-3.9l-0.5-1.5l-0.8-3.2l-0.1-1.3l0.2-1.2l0.4-1
			l0.2-1l-0.2-1.2L307,372l-0.2-1.1v-1.5l-0.1-1.1l-0.4-1l-1.1-2.2l-0.3-1l-0.1-2.4l-0.4-0.5l-3.6-2.1l-2-0.6l-0.9-0.7l-0.2-0.4l0,0
			l9-11.2l2.2-4.9l-0.5-1.9l-1.4-2.2l-7-7.9l9.7-4.7v-0.8l-12.4-17.1l15.3-5.8l3.6,0.1l1.4,3.2l1.1,1.9l7.3,8.6l5.8,10.3l1,0.6
			l3.8,0.9l5.7,2.2l6.6,3.7l13,8l1,1.7l1.6,1.6l-0.1,1.1l5.1-1.8l3.1-4.6l2.6-5.4l0.8-1.1l0.9-0.7l0.9-0.3l0.8,0.2l0.8,0.7l0.9,1.3
			l0.2,2l0.1,3.8l0.5,1.2l1.8,0.6l11.7,1.4l1-0.9l1.3-5.1l0.8-0.4l1.5-0.5l5.7-0.3l1.9-0.4l1.4-0.6l1.4-2l0.5,0.1l0.4,1.4l0.9,5.7
			l0.4,1.5l0.6,1.7l1.5,1.3l1.5,0.9l4.3,1l13.1,0.9l2.1-0.6l-1,3.5l-0.2,1.5l-0.1,1.5v1.4l0.1,1.1l0.2,0.7v0.6H433l-2.3-0.5h-0.4
			l-0.4,0.1l-0.3,0.3l-0.5,0.7l-0.1,0.7l-1.1,3.6l-0.9,1.1l-0.8,0.8l-1,3.1l-0.5,1h-5.1l-1-0.3l-0.9-0.6l-0.9-0.8l-0.8-0.2h-1
			l-1.5,0.3l-0.7,0.4l-0.4,0.5l-0.1,0.5l-0.1,0.5v0.5l0.2,1.1l1.1,1.1l-0.7,2.1l-0.4,0.4l-0.2,0.1v0.1l0.1,0.2l0.5,0.8l1.3,1.3
			l0.7,0.8l0.2,0.4v0.2l-1.3,0.1l-0.3,0.1l-0.3,0.2l-0.3,0.3h-0.4l-0.7,0.5l-2,4.2l-0.6,0.8l-0.8,0.7l-0.8,0.5l-2.6,1.2l-0.3,0.7
			l-0.3,0.4l-0.1,0.3l-1.4,1.8l-0.7,1.6l-0.6,1.4l0.7,1.4l3.1,4.4l1.2,0.8l2,1.1l0.1,0.3l0.2,0.5l0.1,0.5l0.6,0.3h0.8l1.9-0.9
			l0.6,0.1l0.4,0.6l5.1,2.4l0.8,1.3l0.4,1.2v0.9l0.1,1.2l0.4,1.2l0.8,0.5l1,0.4l0.6,0.4l0.8,0.8l0.7,1l0.2,0.3l0.3,0.6l0.4,1.5
			l0.1,0.4l0.1,1.6l-2,1.5l-4.3,4.3l-0.5,0.4l-0.5,0.2H417l-0.5,0.1l-0.3,0.1l-0.3,0.2l-3.3,3.6l-0.4,0.6l-0.3,0.5v0.3v0.3v0.3
			l0.1,0.3l0.2,0.5l0.3,0.4l1.4,1.7l0.1,0.2l0.1,0.3v0.3l-0.1,0.5l-0.2,0.2l-0.3,0.1l-7.2,2.6l-2.3,0.8l-5.9,2.4l-2,1.4l-3.9,4.3
			L391.6,444.9L391.6,444.9z"/>
		<path class="st1" d="M601.7,316.5l-1.3-0.3l-0.5-1l0.3-0.6v-0.2l-0.7,0.7l-1.1-1.2l-0.3-0.6l-0.1-0.7l-0.7,0.4l-0.1-0.1l1.1-2.8
			l0.3-1.8l2.3-2.3h1.5l1,0.7l1.3,0.2l1.6,1l0.2,0.9l-0.7,1.1l0.6,0.4l0.4,0.7l-0.3,0.5l0.4,0.5l-1.6,0.8l-2.2,2L601.7,316.5z"/>
	</g>
</g>
<rect x="293.2" y="325.3" class="st0" width="190.4" height="59.6"/>
</svg>
